<mxfile host="app.diagrams.net" modified="2021-09-15T19:32:18.122Z" agent="5.0 (Windows NT 10.0; Win64; x64) AppleWebKit/537.36 (KHTML, like Gecko) Chrome/93.0.4577.82 Safari/537.36" etag="ANCQD82quHKDX39hx2RK" version="14.9.9" type="github">
  <diagram id="pqnubIUb-DQYWT4TPayM" name="Page-1">
    <mxGraphModel dx="2844" dy="1532" grid="1" gridSize="10" guides="1" tooltips="1" connect="1" arrows="1" fold="1" page="1" pageScale="1" pageWidth="1600" pageHeight="1200" math="0" shadow="0">
      <root>
        <mxCell id="0" />
        <mxCell id="1" parent="0" />
        <mxCell id="yBanLCSbXz5IwqCoXprg-1" value="ObservationPacket" style="shape=table;startSize=30;container=1;collapsible=0;childLayout=tableLayout;fixedRows=1;rowLines=0;fontStyle=1;align=center;pointerEvents=1;" parent="1" vertex="1">
          <mxGeometry x="40" y="40" width="320" height="220" as="geometry" />
        </mxCell>
        <mxCell id="yBanLCSbXz5IwqCoXprg-2" value="" style="shape=partialRectangle;html=1;whiteSpace=wrap;collapsible=0;dropTarget=0;pointerEvents=1;fillColor=none;top=0;left=0;bottom=1;right=0;points=[[0,0.5],[1,0.5]];portConstraint=eastwest;" parent="yBanLCSbXz5IwqCoXprg-1" vertex="1">
          <mxGeometry y="30" width="320" height="30" as="geometry" />
        </mxCell>
        <mxCell id="yBanLCSbXz5IwqCoXprg-3" value="Field" style="shape=partialRectangle;html=1;whiteSpace=wrap;connectable=0;fillColor=none;top=0;left=0;bottom=0;right=0;overflow=hidden;pointerEvents=1;fontStyle=1" parent="yBanLCSbXz5IwqCoXprg-2" vertex="1">
          <mxGeometry width="70" height="30" as="geometry" />
        </mxCell>
        <mxCell id="yBanLCSbXz5IwqCoXprg-4" value="Datatype" style="shape=partialRectangle;html=1;whiteSpace=wrap;connectable=0;fillColor=none;top=0;left=0;bottom=0;right=0;align=left;spacingLeft=6;overflow=hidden;pointerEvents=1;fontStyle=1" parent="yBanLCSbXz5IwqCoXprg-2" vertex="1">
          <mxGeometry x="70" width="110" height="30" as="geometry" />
        </mxCell>
        <mxCell id="yBanLCSbXz5IwqCoXprg-14" value="Value" style="shape=partialRectangle;html=1;whiteSpace=wrap;connectable=0;fillColor=none;top=0;left=0;bottom=0;right=0;align=left;spacingLeft=6;overflow=hidden;pointerEvents=1;fontStyle=1" parent="yBanLCSbXz5IwqCoXprg-2" vertex="1">
          <mxGeometry x="180" width="140" height="30" as="geometry" />
        </mxCell>
        <mxCell id="yBanLCSbXz5IwqCoXprg-5" value="" style="shape=partialRectangle;html=1;whiteSpace=wrap;collapsible=0;dropTarget=0;pointerEvents=1;fillColor=none;top=0;left=0;bottom=0;right=0;points=[[0,0.5],[1,0.5]];portConstraint=eastwest;" parent="yBanLCSbXz5IwqCoXprg-1" vertex="1">
          <mxGeometry y="60" width="320" height="30" as="geometry" />
        </mxCell>
        <mxCell id="yBanLCSbXz5IwqCoXprg-6" value="ID" style="shape=partialRectangle;html=1;whiteSpace=wrap;connectable=0;fillColor=none;top=0;left=0;bottom=0;right=0;overflow=hidden;pointerEvents=1;" parent="yBanLCSbXz5IwqCoXprg-5" vertex="1">
          <mxGeometry width="70" height="30" as="geometry" />
        </mxCell>
        <mxCell id="yBanLCSbXz5IwqCoXprg-7" value="uint8_t" style="shape=partialRectangle;html=1;whiteSpace=wrap;connectable=0;fillColor=none;top=0;left=0;bottom=0;right=0;align=left;spacingLeft=6;overflow=hidden;pointerEvents=1;" parent="yBanLCSbXz5IwqCoXprg-5" vertex="1">
          <mxGeometry x="70" width="110" height="30" as="geometry" />
        </mxCell>
        <mxCell id="yBanLCSbXz5IwqCoXprg-15" value="0x40" style="shape=partialRectangle;html=1;whiteSpace=wrap;connectable=0;fillColor=none;top=0;left=0;bottom=0;right=0;align=left;spacingLeft=6;overflow=hidden;pointerEvents=1;" parent="yBanLCSbXz5IwqCoXprg-5" vertex="1">
          <mxGeometry x="180" width="140" height="30" as="geometry" />
        </mxCell>
        <mxCell id="yBanLCSbXz5IwqCoXprg-8" value="" style="shape=partialRectangle;html=1;whiteSpace=wrap;collapsible=0;dropTarget=0;pointerEvents=1;fillColor=none;top=0;left=0;bottom=0;right=0;points=[[0,0.5],[1,0.5]];portConstraint=eastwest;" parent="yBanLCSbXz5IwqCoXprg-1" vertex="1">
          <mxGeometry y="90" width="320" height="30" as="geometry" />
        </mxCell>
        <mxCell id="yBanLCSbXz5IwqCoXprg-9" value="Timestamp" style="shape=partialRectangle;html=1;whiteSpace=wrap;connectable=0;fillColor=none;top=0;left=0;bottom=0;right=0;overflow=hidden;pointerEvents=1;" parent="yBanLCSbXz5IwqCoXprg-8" vertex="1">
          <mxGeometry width="70" height="30" as="geometry" />
        </mxCell>
        <mxCell id="yBanLCSbXz5IwqCoXprg-10" value="uint32_t" style="shape=partialRectangle;html=1;whiteSpace=wrap;connectable=0;fillColor=none;top=0;left=0;bottom=0;right=0;align=left;spacingLeft=6;overflow=hidden;pointerEvents=1;" parent="yBanLCSbXz5IwqCoXprg-8" vertex="1">
          <mxGeometry x="70" width="110" height="30" as="geometry" />
        </mxCell>
        <mxCell id="yBanLCSbXz5IwqCoXprg-16" value="12345" style="shape=partialRectangle;html=1;whiteSpace=wrap;connectable=0;fillColor=none;top=0;left=0;bottom=0;right=0;align=left;spacingLeft=6;overflow=hidden;pointerEvents=1;fontStyle=2" parent="yBanLCSbXz5IwqCoXprg-8" vertex="1">
          <mxGeometry x="180" width="140" height="30" as="geometry" />
        </mxCell>
        <mxCell id="yBanLCSbXz5IwqCoXprg-21" style="shape=partialRectangle;html=1;whiteSpace=wrap;collapsible=0;dropTarget=0;pointerEvents=1;fillColor=none;top=0;left=0;bottom=0;right=0;points=[[0,0.5],[1,0.5]];portConstraint=eastwest;" parent="yBanLCSbXz5IwqCoXprg-1" vertex="1">
          <mxGeometry y="120" width="320" height="30" as="geometry" />
        </mxCell>
        <mxCell id="yBanLCSbXz5IwqCoXprg-22" value="CartID" style="shape=partialRectangle;html=1;whiteSpace=wrap;connectable=0;fillColor=none;top=0;left=0;bottom=0;right=0;overflow=hidden;pointerEvents=1;" parent="yBanLCSbXz5IwqCoXprg-21" vertex="1">
          <mxGeometry width="70" height="30" as="geometry" />
        </mxCell>
        <mxCell id="yBanLCSbXz5IwqCoXprg-23" value="uint8_t" style="shape=partialRectangle;html=1;whiteSpace=wrap;connectable=0;fillColor=none;top=0;left=0;bottom=0;right=0;align=left;spacingLeft=6;overflow=hidden;pointerEvents=1;" parent="yBanLCSbXz5IwqCoXprg-21" vertex="1">
          <mxGeometry x="70" width="110" height="30" as="geometry" />
        </mxCell>
        <mxCell id="yBanLCSbXz5IwqCoXprg-24" value="1" style="shape=partialRectangle;html=1;whiteSpace=wrap;connectable=0;fillColor=none;top=0;left=0;bottom=0;right=0;align=left;spacingLeft=6;overflow=hidden;pointerEvents=1;fontStyle=2" parent="yBanLCSbXz5IwqCoXprg-21" vertex="1">
          <mxGeometry x="180" width="140" height="30" as="geometry" />
        </mxCell>
        <mxCell id="yBanLCSbXz5IwqCoXprg-17" style="shape=partialRectangle;html=1;whiteSpace=wrap;collapsible=0;dropTarget=0;pointerEvents=1;fillColor=none;top=0;left=0;bottom=0;right=0;points=[[0,0.5],[1,0.5]];portConstraint=eastwest;" parent="yBanLCSbXz5IwqCoXprg-1" vertex="1">
          <mxGeometry y="150" width="320" height="30" as="geometry" />
        </mxCell>
        <mxCell id="yBanLCSbXz5IwqCoXprg-18" value="Position" style="shape=partialRectangle;html=1;whiteSpace=wrap;connectable=0;fillColor=none;top=0;left=0;bottom=0;right=0;overflow=hidden;pointerEvents=1;" parent="yBanLCSbXz5IwqCoXprg-17" vertex="1">
          <mxGeometry width="70" height="30" as="geometry" />
        </mxCell>
        <mxCell id="yBanLCSbXz5IwqCoXprg-19" value="int32_t" style="shape=partialRectangle;html=1;whiteSpace=wrap;connectable=0;fillColor=none;top=0;left=0;bottom=0;right=0;align=left;spacingLeft=6;overflow=hidden;pointerEvents=1;" parent="yBanLCSbXz5IwqCoXprg-17" vertex="1">
          <mxGeometry x="70" width="110" height="30" as="geometry" />
        </mxCell>
        <mxCell id="yBanLCSbXz5IwqCoXprg-20" value="12000" style="shape=partialRectangle;html=1;whiteSpace=wrap;connectable=0;fillColor=none;top=0;left=0;bottom=0;right=0;align=left;spacingLeft=6;overflow=hidden;pointerEvents=1;fontStyle=2" parent="yBanLCSbXz5IwqCoXprg-17" vertex="1">
          <mxGeometry x="180" width="140" height="30" as="geometry" />
        </mxCell>
        <mxCell id="yBanLCSbXz5IwqCoXprg-25" style="shape=partialRectangle;html=1;whiteSpace=wrap;collapsible=0;dropTarget=0;pointerEvents=1;fillColor=none;top=0;left=0;bottom=0;right=0;points=[[0,0.5],[1,0.5]];portConstraint=eastwest;" parent="yBanLCSbXz5IwqCoXprg-1" vertex="1">
          <mxGeometry y="180" width="320" height="30" as="geometry" />
        </mxCell>
        <mxCell id="yBanLCSbXz5IwqCoXprg-26" value="Angle" style="shape=partialRectangle;html=1;whiteSpace=wrap;connectable=0;fillColor=none;top=0;left=0;bottom=0;right=0;overflow=hidden;pointerEvents=1;" parent="yBanLCSbXz5IwqCoXprg-25" vertex="1">
          <mxGeometry width="70" height="30" as="geometry" />
        </mxCell>
        <mxCell id="yBanLCSbXz5IwqCoXprg-27" value="float32_t" style="shape=partialRectangle;html=1;whiteSpace=wrap;connectable=0;fillColor=none;top=0;left=0;bottom=0;right=0;align=left;spacingLeft=6;overflow=hidden;pointerEvents=1;" parent="yBanLCSbXz5IwqCoXprg-25" vertex="1">
          <mxGeometry x="70" width="110" height="30" as="geometry" />
        </mxCell>
        <mxCell id="yBanLCSbXz5IwqCoXprg-28" value="-123.8032333" style="shape=partialRectangle;html=1;whiteSpace=wrap;connectable=0;fillColor=none;top=0;left=0;bottom=0;right=0;align=left;spacingLeft=6;overflow=hidden;pointerEvents=1;fontStyle=2" parent="yBanLCSbXz5IwqCoXprg-25" vertex="1">
          <mxGeometry x="180" width="140" height="30" as="geometry" />
        </mxCell>
        <mxCell id="yBanLCSbXz5IwqCoXprg-54" value="" style="verticalLabelPosition=bottom;html=1;verticalAlign=top;align=center;strokeColor=none;fillColor=#00BEF2;shape=mxgraph.azure.computer;pointerEvents=1;" parent="1" vertex="1">
          <mxGeometry x="760" y="450" width="80" height="70" as="geometry" />
        </mxCell>
        <mxCell id="yBanLCSbXz5IwqCoXprg-55" value="" style="shape=image;html=1;verticalAlign=top;verticalLabelPosition=bottom;labelBackgroundColor=#ffffff;imageAspect=0;aspect=fixed;image=https://cdn2.iconfinder.com/data/icons/electronic-13/480/3-electronic-arduino-chipset-icon-2-128.png" parent="1" vertex="1">
          <mxGeometry x="160" y="436.25" width="97.5" height="97.5" as="geometry" />
        </mxCell>
        <mxCell id="yBanLCSbXz5IwqCoXprg-57" value="" style="endArrow=none;html=1;entryX=0;entryY=0.5;entryDx=0;entryDy=0;entryPerimeter=0;exitX=1;exitY=0.5;exitDx=0;exitDy=0;strokeWidth=4;" parent="1" source="yBanLCSbXz5IwqCoXprg-55" target="yBanLCSbXz5IwqCoXprg-54" edge="1">
          <mxGeometry width="50" height="50" relative="1" as="geometry">
            <mxPoint x="390" y="450" as="sourcePoint" />
            <mxPoint x="440" y="400" as="targetPoint" />
          </mxGeometry>
        </mxCell>
        <mxCell id="yBanLCSbXz5IwqCoXprg-58" value="&lt;font style=&quot;font-size: 22px&quot;&gt;Serial-over-USB&lt;br&gt;&lt;br&gt;Packets ⇋&lt;/font&gt;" style="text;html=1;strokeColor=none;fillColor=none;align=center;verticalAlign=middle;whiteSpace=wrap;rounded=0;" parent="1" vertex="1">
          <mxGeometry x="423.75" y="370" width="170" height="100" as="geometry" />
        </mxCell>
        <mxCell id="yBanLCSbXz5IwqCoXprg-76" value="" style="endArrow=classic;html=1;fontSize=16;strokeWidth=4;exitX=0.547;exitY=-0.02;exitDx=0;exitDy=0;exitPerimeter=0;" parent="1" source="yBanLCSbXz5IwqCoXprg-58" edge="1">
          <mxGeometry width="50" height="50" relative="1" as="geometry">
            <mxPoint x="390" y="250" as="sourcePoint" />
            <mxPoint x="260" y="270" as="targetPoint" />
            <Array as="points">
              <mxPoint x="517" y="300" />
              <mxPoint x="260" y="300" />
            </Array>
          </mxGeometry>
        </mxCell>
        <mxCell id="yBanLCSbXz5IwqCoXprg-77" value="" style="rounded=0;whiteSpace=wrap;html=1;shadow=0;fontSize=16;strokeWidth=3;fillColor=#f8cecc;strokeColor=#b85450;" parent="1" vertex="1">
          <mxGeometry x="560" y="550" width="1760" height="660" as="geometry" />
        </mxCell>
        <mxCell id="yBanLCSbXz5IwqCoXprg-84" value="" style="group" parent="1" vertex="1" connectable="0">
          <mxGeometry x="20" y="530" width="420" height="460" as="geometry" />
        </mxCell>
        <mxCell id="yBanLCSbXz5IwqCoXprg-73" value="" style="rounded=0;whiteSpace=wrap;html=1;fontSize=16;textOpacity=0;strokeWidth=3;shadow=0;fillColor=#dae8fc;strokeColor=#6c8ebf;" parent="yBanLCSbXz5IwqCoXprg-84" vertex="1">
          <mxGeometry width="420" height="420" as="geometry" />
        </mxCell>
        <mxCell id="yBanLCSbXz5IwqCoXprg-59" value="" style="pointerEvents=1;verticalLabelPosition=bottom;shadow=0;dashed=0;align=center;html=1;verticalAlign=top;shape=mxgraph.electrical.electro-mechanical.push_switch_no;" parent="yBanLCSbXz5IwqCoXprg-84" vertex="1">
          <mxGeometry x="116.31" y="65" width="110" height="74" as="geometry" />
        </mxCell>
        <mxCell id="yBanLCSbXz5IwqCoXprg-61" value="" style="shape=mxgraph.pid.feeders.proportional_feeder_(rotary_valve);html=1;pointerEvents=1;align=center;verticalLabelPosition=bottom;verticalAlign=top;dashed=0;" parent="yBanLCSbXz5IwqCoXprg-84" vertex="1">
          <mxGeometry x="126.31" y="175" width="100" height="100" as="geometry" />
        </mxCell>
        <mxCell id="yBanLCSbXz5IwqCoXprg-63" value="" style="verticalLabelPosition=bottom;aspect=fixed;html=1;verticalAlign=top;strokeColor=#000000;fillColor=#000000;align=center;outlineConnect=0;shape=mxgraph.fluid_power.x10070;points=[[1,0.38,0],[1,0.5,0],[1,0.62,0]]" parent="yBanLCSbXz5IwqCoXprg-84" vertex="1">
          <mxGeometry x="126.31" y="315" width="174.89" height="100" as="geometry" />
        </mxCell>
        <mxCell id="yBanLCSbXz5IwqCoXprg-64" value="Limit switch" style="text;html=1;strokeColor=none;fillColor=none;align=center;verticalAlign=middle;whiteSpace=wrap;rounded=0;fontSize=16;fontStyle=1" parent="yBanLCSbXz5IwqCoXprg-84" vertex="1">
          <mxGeometry x="20" y="92" width="90" height="20" as="geometry" />
        </mxCell>
        <mxCell id="yBanLCSbXz5IwqCoXprg-66" value="Rotary encoder" style="text;html=1;strokeColor=none;fillColor=none;align=center;verticalAlign=middle;whiteSpace=wrap;rounded=0;fontSize=16;fontStyle=1" parent="yBanLCSbXz5IwqCoXprg-84" vertex="1">
          <mxGeometry x="20" y="215" width="90" height="20" as="geometry" />
        </mxCell>
        <mxCell id="yBanLCSbXz5IwqCoXprg-67" value="Stepper motor" style="text;html=1;strokeColor=none;fillColor=none;align=center;verticalAlign=middle;whiteSpace=wrap;rounded=0;fontSize=16;fontStyle=1" parent="yBanLCSbXz5IwqCoXprg-84" vertex="1">
          <mxGeometry x="20" y="350" width="90" height="20" as="geometry" />
        </mxCell>
        <mxCell id="yBanLCSbXz5IwqCoXprg-68" value="" style="endArrow=none;html=1;fontSize=16;strokeWidth=4;" parent="yBanLCSbXz5IwqCoXprg-84" edge="1">
          <mxGeometry width="50" height="50" relative="1" as="geometry">
            <mxPoint x="250" y="130" as="sourcePoint" />
            <mxPoint x="330" y="130" as="targetPoint" />
          </mxGeometry>
        </mxCell>
        <mxCell id="yBanLCSbXz5IwqCoXprg-69" value="" style="endArrow=none;html=1;fontSize=16;strokeWidth=4;exitX=0.987;exitY=0.51;exitDx=0;exitDy=0;exitPerimeter=0;" parent="yBanLCSbXz5IwqCoXprg-84" source="yBanLCSbXz5IwqCoXprg-61" edge="1">
          <mxGeometry width="50" height="50" relative="1" as="geometry">
            <mxPoint x="430" y="215" as="sourcePoint" />
            <mxPoint x="330" y="226" as="targetPoint" />
          </mxGeometry>
        </mxCell>
        <mxCell id="yBanLCSbXz5IwqCoXprg-70" value="" style="endArrow=none;html=1;fontSize=16;strokeWidth=4;" parent="yBanLCSbXz5IwqCoXprg-84" edge="1">
          <mxGeometry width="50" height="50" relative="1" as="geometry">
            <mxPoint x="330" y="130" as="sourcePoint" />
            <mxPoint x="330" y="370" as="targetPoint" />
          </mxGeometry>
        </mxCell>
        <mxCell id="yBanLCSbXz5IwqCoXprg-72" value="" style="endArrow=none;html=1;fontSize=16;strokeWidth=4;" parent="yBanLCSbXz5IwqCoXprg-84" source="yBanLCSbXz5IwqCoXprg-63" edge="1">
          <mxGeometry width="50" height="50" relative="1" as="geometry">
            <mxPoint x="250" y="369" as="sourcePoint" />
            <mxPoint x="330" y="369" as="targetPoint" />
          </mxGeometry>
        </mxCell>
        <mxCell id="yBanLCSbXz5IwqCoXprg-74" value="&lt;font style=&quot;font-size: 50px&quot;&gt;x 2&lt;/font&gt;" style="text;html=1;strokeColor=none;fillColor=none;align=center;verticalAlign=middle;whiteSpace=wrap;rounded=0;shadow=0;fontSize=16;" parent="yBanLCSbXz5IwqCoXprg-84" vertex="1">
          <mxGeometry x="280" y="440" width="140" height="20" as="geometry" />
        </mxCell>
        <mxCell id="yBanLCSbXz5IwqCoXprg-75" value="" style="endArrow=none;html=1;fontSize=16;strokeWidth=4;entryX=0.75;entryY=1;entryDx=0;entryDy=0;" parent="yBanLCSbXz5IwqCoXprg-84" target="yBanLCSbXz5IwqCoXprg-55" edge="1">
          <mxGeometry width="50" height="50" relative="1" as="geometry">
            <mxPoint x="330" y="130" as="sourcePoint" />
            <mxPoint x="440" y="80" as="targetPoint" />
            <Array as="points">
              <mxPoint x="330" y="14" />
              <mxPoint x="213" y="14" />
            </Array>
          </mxGeometry>
        </mxCell>
        <mxCell id="yBanLCSbXz5IwqCoXprg-85" value="" style="group" parent="1" vertex="1" connectable="0">
          <mxGeometry x="590" y="580" width="460" height="240" as="geometry" />
        </mxCell>
        <mxCell id="yBanLCSbXz5IwqCoXprg-80" value="" style="rounded=0;whiteSpace=wrap;html=1;shadow=0;fontSize=16;strokeWidth=3;fillColor=#d5e8d4;strokeColor=#82b366;" parent="yBanLCSbXz5IwqCoXprg-85" vertex="1">
          <mxGeometry width="460" height="240" as="geometry" />
        </mxCell>
        <mxCell id="yBanLCSbXz5IwqCoXprg-79" value="" style="shape=image;html=1;verticalAlign=top;verticalLabelPosition=bottom;labelBackgroundColor=#ffffff;imageAspect=0;aspect=fixed;image=https://cdn2.iconfinder.com/data/icons/web-development-and-studio/512/662_Algorithm_chart_data_diagram_flow-128.png;shadow=0;fontSize=16;strokeWidth=3;fillColor=#ffffff;" parent="yBanLCSbXz5IwqCoXprg-85" vertex="1">
          <mxGeometry x="60" y="60" width="128" height="128" as="geometry" />
        </mxCell>
        <mxCell id="yBanLCSbXz5IwqCoXprg-81" value="&lt;b&gt;Reinforcement Learning Algorithm&lt;/b&gt;&lt;br&gt;&lt;br&gt;One of:&lt;br&gt;&lt;ul&gt;&lt;li&gt;PPO&lt;/li&gt;&lt;li&gt;A2C&lt;/li&gt;&lt;li&gt;Custom&lt;/li&gt;&lt;/ul&gt;" style="text;html=1;strokeColor=none;fillColor=none;align=left;verticalAlign=middle;whiteSpace=wrap;rounded=0;shadow=0;fontSize=16;" parent="yBanLCSbXz5IwqCoXprg-85" vertex="1">
          <mxGeometry x="250" y="29.5" width="170" height="181" as="geometry" />
        </mxCell>
        <mxCell id="yBanLCSbXz5IwqCoXprg-119" value="" style="group" parent="1" vertex="1" connectable="0">
          <mxGeometry x="1920" y="580" width="321" height="190" as="geometry" />
        </mxCell>
        <mxCell id="yBanLCSbXz5IwqCoXprg-111" value="" style="verticalLabelPosition=bottom;verticalAlign=top;html=1;shape=mxgraph.basic.rect;fillColor2=none;strokeWidth=1;size=20;indent=5;shadow=0;fontSize=16;fillColor=#e1d5e7;strokeColor=#9673a6;" parent="yBanLCSbXz5IwqCoXprg-119" vertex="1">
          <mxGeometry x="1" width="320" height="190" as="geometry" />
        </mxCell>
        <mxCell id="yBanLCSbXz5IwqCoXprg-114" value="" style="shape=image;html=1;verticalAlign=top;verticalLabelPosition=bottom;labelBackgroundColor=#ffffff;imageAspect=0;aspect=fixed;image=https://cdn2.iconfinder.com/data/icons/ios-7-icons/50/finish_flag-128.png;shadow=0;fontSize=16;strokeWidth=3;fillColor=#ffffff;" parent="yBanLCSbXz5IwqCoXprg-119" vertex="1">
          <mxGeometry x="24.75" y="20" width="70" height="70" as="geometry" />
        </mxCell>
        <mxCell id="yBanLCSbXz5IwqCoXprg-116" style="edgeStyle=orthogonalEdgeStyle;shape=link;rounded=0;orthogonalLoop=1;jettySize=auto;html=1;fontSize=16;strokeWidth=4;" parent="yBanLCSbXz5IwqCoXprg-119" source="yBanLCSbXz5IwqCoXprg-115" edge="1">
          <mxGeometry relative="1" as="geometry">
            <mxPoint y="100" as="targetPoint" />
            <Array as="points">
              <mxPoint x="80" y="100" />
              <mxPoint y="100" />
            </Array>
          </mxGeometry>
        </mxCell>
        <mxCell id="yBanLCSbXz5IwqCoXprg-115" value="«interface»&lt;br&gt;&lt;b&gt;Goal&lt;/b&gt;" style="html=1;shadow=0;fontSize=16;strokeWidth=3;fillColor=#ffffff;" parent="yBanLCSbXz5IwqCoXprg-119" vertex="1">
          <mxGeometry x="24.75" y="120" width="110" height="50" as="geometry" />
        </mxCell>
        <mxCell id="yBanLCSbXz5IwqCoXprg-118" value="&lt;h1 style=&quot;font-size: 20px&quot;&gt;&lt;font style=&quot;font-size: 20px&quot;&gt;TimeGoal&lt;/font&gt;&lt;/h1&gt;&lt;p&gt;&lt;font style=&quot;font-size: 16px&quot;&gt;Maximise time before &#39;failing&#39;.&lt;/font&gt;&lt;/p&gt;" style="text;html=1;strokeColor=none;fillColor=none;spacing=5;spacingTop=-20;whiteSpace=wrap;overflow=hidden;rounded=0;shadow=0;fontSize=16;" parent="yBanLCSbXz5IwqCoXprg-119" vertex="1">
          <mxGeometry x="121" y="10" width="190" height="120" as="geometry" />
        </mxCell>
        <mxCell id="yBanLCSbXz5IwqCoXprg-120" value="" style="group" parent="1" vertex="1" connectable="0">
          <mxGeometry x="1921" y="780" width="321" height="190" as="geometry" />
        </mxCell>
        <mxCell id="yBanLCSbXz5IwqCoXprg-121" value="" style="verticalLabelPosition=bottom;verticalAlign=top;html=1;shape=mxgraph.basic.rect;fillColor2=none;strokeWidth=1;size=20;indent=5;shadow=0;fontSize=16;fillColor=#e1d5e7;strokeColor=#9673a6;" parent="yBanLCSbXz5IwqCoXprg-120" vertex="1">
          <mxGeometry x="1" width="320" height="190" as="geometry" />
        </mxCell>
        <mxCell id="yBanLCSbXz5IwqCoXprg-122" value="" style="shape=image;html=1;verticalAlign=top;verticalLabelPosition=bottom;labelBackgroundColor=#ffffff;imageAspect=0;aspect=fixed;image=https://cdn2.iconfinder.com/data/icons/ios-7-icons/50/finish_flag-128.png;shadow=0;fontSize=16;strokeWidth=3;fillColor=#ffffff;" parent="yBanLCSbXz5IwqCoXprg-120" vertex="1">
          <mxGeometry x="24.75" y="20" width="70" height="70" as="geometry" />
        </mxCell>
        <mxCell id="yBanLCSbXz5IwqCoXprg-123" style="edgeStyle=orthogonalEdgeStyle;shape=link;rounded=0;orthogonalLoop=1;jettySize=auto;html=1;fontSize=16;strokeWidth=4;" parent="yBanLCSbXz5IwqCoXprg-120" source="yBanLCSbXz5IwqCoXprg-124" edge="1">
          <mxGeometry relative="1" as="geometry">
            <mxPoint y="100" as="targetPoint" />
            <Array as="points">
              <mxPoint x="80" y="100" />
              <mxPoint y="100" />
            </Array>
          </mxGeometry>
        </mxCell>
        <mxCell id="yBanLCSbXz5IwqCoXprg-124" value="«interface»&lt;br&gt;&lt;b&gt;Goal&lt;/b&gt;" style="html=1;shadow=0;fontSize=16;strokeWidth=3;fillColor=#ffffff;" parent="yBanLCSbXz5IwqCoXprg-120" vertex="1">
          <mxGeometry x="24.75" y="120" width="110" height="50" as="geometry" />
        </mxCell>
        <mxCell id="yBanLCSbXz5IwqCoXprg-125" value="&lt;h1 style=&quot;font-size: 20px&quot;&gt;&lt;font style=&quot;font-size: 20px&quot;&gt;SwingupGoal&lt;/font&gt;&lt;/h1&gt;&lt;p&gt;Reward based on angle of pole.&lt;/p&gt;" style="text;html=1;strokeColor=none;fillColor=none;spacing=5;spacingTop=-20;whiteSpace=wrap;overflow=hidden;rounded=0;shadow=0;fontSize=16;" parent="yBanLCSbXz5IwqCoXprg-120" vertex="1">
          <mxGeometry x="121" y="10" width="190" height="120" as="geometry" />
        </mxCell>
        <mxCell id="yBanLCSbXz5IwqCoXprg-126" value="" style="group" parent="1" vertex="1" connectable="0">
          <mxGeometry x="1920" y="980" width="321" height="190" as="geometry" />
        </mxCell>
        <mxCell id="yBanLCSbXz5IwqCoXprg-127" value="" style="verticalLabelPosition=bottom;verticalAlign=top;html=1;shape=mxgraph.basic.rect;fillColor2=none;strokeWidth=1;size=20;indent=5;shadow=0;fontSize=16;fillColor=#e1d5e7;strokeColor=#9673a6;" parent="yBanLCSbXz5IwqCoXprg-126" vertex="1">
          <mxGeometry x="1" width="320" height="190" as="geometry" />
        </mxCell>
        <mxCell id="yBanLCSbXz5IwqCoXprg-128" value="" style="shape=image;html=1;verticalAlign=top;verticalLabelPosition=bottom;labelBackgroundColor=#ffffff;imageAspect=0;aspect=fixed;image=https://cdn2.iconfinder.com/data/icons/ios-7-icons/50/finish_flag-128.png;shadow=0;fontSize=16;strokeWidth=3;fillColor=#ffffff;" parent="yBanLCSbXz5IwqCoXprg-126" vertex="1">
          <mxGeometry x="24.75" y="20" width="70" height="70" as="geometry" />
        </mxCell>
        <mxCell id="yBanLCSbXz5IwqCoXprg-129" style="edgeStyle=orthogonalEdgeStyle;shape=link;rounded=0;orthogonalLoop=1;jettySize=auto;html=1;fontSize=16;strokeWidth=4;" parent="yBanLCSbXz5IwqCoXprg-126" source="yBanLCSbXz5IwqCoXprg-130" edge="1">
          <mxGeometry relative="1" as="geometry">
            <mxPoint y="100" as="targetPoint" />
            <Array as="points">
              <mxPoint x="80" y="100" />
              <mxPoint y="100" />
            </Array>
          </mxGeometry>
        </mxCell>
        <mxCell id="yBanLCSbXz5IwqCoXprg-130" value="«interface»&lt;br&gt;&lt;b&gt;Goal&lt;/b&gt;" style="html=1;shadow=0;fontSize=16;strokeWidth=3;fillColor=#ffffff;" parent="yBanLCSbXz5IwqCoXprg-126" vertex="1">
          <mxGeometry x="24.75" y="120" width="110" height="50" as="geometry" />
        </mxCell>
        <mxCell id="yBanLCSbXz5IwqCoXprg-131" value="&lt;h1 style=&quot;font-size: 20px&quot;&gt;BounceGoal&lt;/h1&gt;&lt;p&gt;Reward potential maximised in the middle of track.&lt;/p&gt;" style="text;html=1;strokeColor=none;fillColor=none;spacing=5;spacingTop=-20;whiteSpace=wrap;overflow=hidden;rounded=0;shadow=0;fontSize=16;" parent="yBanLCSbXz5IwqCoXprg-126" vertex="1">
          <mxGeometry x="121" y="10" width="190" height="120" as="geometry" />
        </mxCell>
        <mxCell id="yBanLCSbXz5IwqCoXprg-132" value="" style="group" parent="1" vertex="1" connectable="0">
          <mxGeometry x="1100" y="830" width="760" height="220" as="geometry" />
        </mxCell>
        <mxCell id="yBanLCSbXz5IwqCoXprg-133" value="" style="rounded=0;whiteSpace=wrap;html=1;shadow=0;fontSize=16;strokeWidth=3;fillColor=#fff2cc;strokeColor=#d6b656;" parent="yBanLCSbXz5IwqCoXprg-132" vertex="1">
          <mxGeometry x="10" width="760" height="220" as="geometry" />
        </mxCell>
        <mxCell id="yBanLCSbXz5IwqCoXprg-134" value="" style="group" parent="yBanLCSbXz5IwqCoXprg-132" vertex="1" connectable="0">
          <mxGeometry x="30" y="10" width="710" height="185" as="geometry" />
        </mxCell>
        <mxCell id="yBanLCSbXz5IwqCoXprg-135" value="&lt;font style=&quot;font-size: 21px&quot;&gt;&lt;b&gt;ExperimentalAgent&lt;/b&gt;&lt;/font&gt;" style="text;html=1;strokeColor=none;fillColor=none;align=center;verticalAlign=middle;whiteSpace=wrap;rounded=0;shadow=0;fontSize=16;" parent="yBanLCSbXz5IwqCoXprg-134" vertex="1">
          <mxGeometry x="140" width="190" height="90" as="geometry" />
        </mxCell>
        <mxCell id="yBanLCSbXz5IwqCoXprg-136" value="" style="group" parent="yBanLCSbXz5IwqCoXprg-134" vertex="1" connectable="0">
          <mxGeometry x="340" y="30" width="370" height="155" as="geometry" />
        </mxCell>
        <mxCell id="yBanLCSbXz5IwqCoXprg-137" value="NetworkManager" style="shape=folder;fontStyle=1;spacingTop=10;tabWidth=40;tabHeight=14;tabPosition=left;html=1;shadow=0;fontSize=16;strokeWidth=3;fillColor=#ffffff;" parent="yBanLCSbXz5IwqCoXprg-136" vertex="1">
          <mxGeometry x="220" y="100" width="150" height="55" as="geometry" />
        </mxCell>
        <mxCell id="yBanLCSbXz5IwqCoXprg-138" value="«interface»&lt;br&gt;&lt;b&gt;Agent&lt;/b&gt;" style="html=1;shadow=0;fontSize=16;strokeWidth=3;fillColor=#ffffff;" parent="yBanLCSbXz5IwqCoXprg-136" vertex="1">
          <mxGeometry y="65" width="110" height="50" as="geometry" />
        </mxCell>
        <mxCell id="yBanLCSbXz5IwqCoXprg-139" style="edgeStyle=orthogonalEdgeStyle;rounded=0;orthogonalLoop=1;jettySize=auto;html=1;entryX=0;entryY=0;entryDx=20;entryDy=0;entryPerimeter=0;fontSize=16;strokeWidth=4;" parent="yBanLCSbXz5IwqCoXprg-136" source="yBanLCSbXz5IwqCoXprg-140" target="yBanLCSbXz5IwqCoXprg-137" edge="1">
          <mxGeometry relative="1" as="geometry" />
        </mxCell>
        <mxCell id="yBanLCSbXz5IwqCoXprg-140" value="&lt;b&gt;&#39;Commander&#39;&lt;/b&gt;" style="html=1;shadow=0;fontSize=16;strokeWidth=3;fillColor=#ffffff;" parent="yBanLCSbXz5IwqCoXprg-136" vertex="1">
          <mxGeometry x="220" width="110" height="50" as="geometry" />
        </mxCell>
        <mxCell id="yBanLCSbXz5IwqCoXprg-141" style="edgeStyle=orthogonalEdgeStyle;rounded=0;orthogonalLoop=1;jettySize=auto;html=1;entryX=0.5;entryY=0;entryDx=0;entryDy=0;fontSize=16;strokeWidth=4;" parent="yBanLCSbXz5IwqCoXprg-136" source="yBanLCSbXz5IwqCoXprg-138" target="yBanLCSbXz5IwqCoXprg-140" edge="1">
          <mxGeometry relative="1" as="geometry" />
        </mxCell>
        <mxCell id="yBanLCSbXz5IwqCoXprg-142" style="edgeStyle=orthogonalEdgeStyle;rounded=0;orthogonalLoop=1;jettySize=auto;html=1;fontSize=16;strokeWidth=4;shape=link;entryX=0;entryY=0.75;entryDx=0;entryDy=0;" parent="yBanLCSbXz5IwqCoXprg-132" source="yBanLCSbXz5IwqCoXprg-138" target="yBanLCSbXz5IwqCoXprg-133" edge="1">
          <mxGeometry relative="1" as="geometry">
            <Array as="points">
              <mxPoint x="425" y="85" />
              <mxPoint x="350" y="85" />
              <mxPoint x="350" y="165" />
            </Array>
          </mxGeometry>
        </mxCell>
        <mxCell id="yBanLCSbXz5IwqCoXprg-143" value="" style="shadow=0;dashed=0;html=1;strokeColor=none;fillColor=#4495D1;labelPosition=center;verticalLabelPosition=bottom;verticalAlign=top;align=center;outlineConnect=0;shape=mxgraph.veeam.2d.agent;pointerEvents=1;fontSize=16;" parent="yBanLCSbXz5IwqCoXprg-132" vertex="1">
          <mxGeometry x="30" y="10" width="130" height="130" as="geometry" />
        </mxCell>
        <mxCell id="yBanLCSbXz5IwqCoXprg-99" value="" style="group;fontStyle=1" parent="1" vertex="1" connectable="0">
          <mxGeometry x="1110" y="570" width="760" height="220" as="geometry" />
        </mxCell>
        <mxCell id="yBanLCSbXz5IwqCoXprg-86" value="" style="rounded=0;whiteSpace=wrap;html=1;shadow=0;fontSize=16;strokeWidth=3;fillColor=#fff2cc;strokeColor=#d6b656;" parent="yBanLCSbXz5IwqCoXprg-99" vertex="1">
          <mxGeometry width="760" height="220" as="geometry" />
        </mxCell>
        <mxCell id="yBanLCSbXz5IwqCoXprg-97" value="" style="group" parent="yBanLCSbXz5IwqCoXprg-99" vertex="1" connectable="0">
          <mxGeometry x="30" y="10" width="670" height="185" as="geometry" />
        </mxCell>
        <mxCell id="yBanLCSbXz5IwqCoXprg-88" value="&lt;font style=&quot;font-size: 21px&quot;&gt;&lt;b&gt;SimulatedAgent&lt;/b&gt;&lt;/font&gt;" style="text;html=1;strokeColor=none;fillColor=none;align=center;verticalAlign=middle;whiteSpace=wrap;rounded=0;shadow=0;fontSize=16;" parent="yBanLCSbXz5IwqCoXprg-97" vertex="1">
          <mxGeometry x="140" width="190" height="90" as="geometry" />
        </mxCell>
        <mxCell id="yBanLCSbXz5IwqCoXprg-96" value="" style="group" parent="yBanLCSbXz5IwqCoXprg-97" vertex="1" connectable="0">
          <mxGeometry x="340" y="30" width="330" height="155" as="geometry" />
        </mxCell>
        <mxCell id="yBanLCSbXz5IwqCoXprg-90" value="Integrator" style="shape=folder;fontStyle=1;spacingTop=10;tabWidth=40;tabHeight=14;tabPosition=left;html=1;shadow=0;fontSize=16;strokeWidth=3;fillColor=#ffffff;" parent="yBanLCSbXz5IwqCoXprg-96" vertex="1">
          <mxGeometry x="220" y="105" width="110" height="50" as="geometry" />
        </mxCell>
        <mxCell id="yBanLCSbXz5IwqCoXprg-91" value="«interface»&lt;br&gt;&lt;b&gt;Agent&lt;/b&gt;" style="html=1;shadow=0;fontSize=16;strokeWidth=3;fillColor=#ffffff;" parent="yBanLCSbXz5IwqCoXprg-96" vertex="1">
          <mxGeometry y="65" width="110" height="50" as="geometry" />
        </mxCell>
        <mxCell id="yBanLCSbXz5IwqCoXprg-94" style="edgeStyle=orthogonalEdgeStyle;rounded=0;orthogonalLoop=1;jettySize=auto;html=1;entryX=0;entryY=0;entryDx=20;entryDy=0;entryPerimeter=0;fontSize=16;strokeWidth=4;" parent="yBanLCSbXz5IwqCoXprg-96" source="yBanLCSbXz5IwqCoXprg-92" target="yBanLCSbXz5IwqCoXprg-90" edge="1">
          <mxGeometry relative="1" as="geometry" />
        </mxCell>
        <mxCell id="yBanLCSbXz5IwqCoXprg-92" value="&lt;b&gt;Simulator&lt;/b&gt;" style="html=1;shadow=0;fontSize=16;strokeWidth=3;fillColor=#ffffff;" parent="yBanLCSbXz5IwqCoXprg-96" vertex="1">
          <mxGeometry x="220" width="110" height="50" as="geometry" />
        </mxCell>
        <mxCell id="yBanLCSbXz5IwqCoXprg-93" style="edgeStyle=orthogonalEdgeStyle;rounded=0;orthogonalLoop=1;jettySize=auto;html=1;entryX=0.5;entryY=0;entryDx=0;entryDy=0;fontSize=16;strokeWidth=4;" parent="yBanLCSbXz5IwqCoXprg-96" source="yBanLCSbXz5IwqCoXprg-91" target="yBanLCSbXz5IwqCoXprg-92" edge="1">
          <mxGeometry relative="1" as="geometry" />
        </mxCell>
        <mxCell id="yBanLCSbXz5IwqCoXprg-112" style="edgeStyle=orthogonalEdgeStyle;rounded=0;orthogonalLoop=1;jettySize=auto;html=1;fontSize=16;strokeWidth=4;shape=link;entryX=0;entryY=0.75;entryDx=0;entryDy=0;" parent="yBanLCSbXz5IwqCoXprg-99" source="yBanLCSbXz5IwqCoXprg-91" target="yBanLCSbXz5IwqCoXprg-86" edge="1">
          <mxGeometry relative="1" as="geometry">
            <Array as="points">
              <mxPoint x="425" y="85" />
              <mxPoint x="350" y="85" />
              <mxPoint x="350" y="165" />
            </Array>
          </mxGeometry>
        </mxCell>
        <mxCell id="yBanLCSbXz5IwqCoXprg-87" value="" style="shadow=0;dashed=0;html=1;strokeColor=none;fillColor=#4495D1;labelPosition=center;verticalLabelPosition=bottom;verticalAlign=top;align=center;outlineConnect=0;shape=mxgraph.veeam.2d.agent;pointerEvents=1;fontSize=16;" parent="yBanLCSbXz5IwqCoXprg-99" vertex="1">
          <mxGeometry x="30" y="10" width="130" height="130" as="geometry" />
        </mxCell>
        <mxCell id="yBanLCSbXz5IwqCoXprg-151" style="edgeStyle=orthogonalEdgeStyle;rounded=0;orthogonalLoop=1;jettySize=auto;html=1;entryX=0;entryY=0.75;entryDx=0;entryDy=0;fontSize=16;strokeWidth=4;dashed=1;" parent="1" source="yBanLCSbXz5IwqCoXprg-80" target="yBanLCSbXz5IwqCoXprg-133" edge="1">
          <mxGeometry relative="1" as="geometry" />
        </mxCell>
        <mxCell id="yBanLCSbXz5IwqCoXprg-152" style="edgeStyle=orthogonalEdgeStyle;rounded=0;orthogonalLoop=1;jettySize=auto;html=1;entryX=0.004;entryY=0.527;entryDx=0;entryDy=0;entryPerimeter=0;dashed=1;fontSize=16;strokeWidth=4;" parent="1" source="yBanLCSbXz5IwqCoXprg-133" target="yBanLCSbXz5IwqCoXprg-127" edge="1">
          <mxGeometry relative="1" as="geometry" />
        </mxCell>
        <mxCell id="yBanLCSbXz5IwqCoXprg-153" value="" style="rounded=0;whiteSpace=wrap;html=1;shadow=0;fontSize=16;strokeWidth=3;fillColor=#f5f5f5;strokeColor=#666666;fontColor=#333333;" parent="1" vertex="1">
          <mxGeometry x="593.75" y="860" width="456.25" height="310" as="geometry" />
        </mxCell>
        <mxCell id="yBanLCSbXz5IwqCoXprg-155" value="" style="strokeColor=#dddddd;shadow=1;strokeWidth=1;rounded=1;absoluteArcSize=1;arcSize=2;fontSize=16;fillColor=#ffffff;" parent="1" vertex="1">
          <mxGeometry x="630" y="910" width="140" height="70" as="geometry" />
        </mxCell>
        <mxCell id="yBanLCSbXz5IwqCoXprg-156" value="&lt;font color=&quot;#000000&quot;&gt;TensorBoard&lt;/font&gt;" style="dashed=0;connectable=0;html=1;fillColor=#5184F3;strokeColor=none;shape=mxgraph.gcp2.tensorflow_logo;part=1;labelPosition=right;verticalLabelPosition=middle;align=left;verticalAlign=middle;spacingLeft=5;fontColor=#999999;fontSize=12;" parent="yBanLCSbXz5IwqCoXprg-155" vertex="1">
          <mxGeometry width="42.3" height="45" relative="1" as="geometry">
            <mxPoint x="5" y="7" as="offset" />
          </mxGeometry>
        </mxCell>
        <mxCell id="yBanLCSbXz5IwqCoXprg-157" value="&lt;font style=&quot;font-size: 20px&quot;&gt;&lt;b&gt;Tensorboard for diagnostics&lt;/b&gt;&lt;/font&gt;" style="text;html=1;strokeColor=none;fillColor=none;align=center;verticalAlign=middle;whiteSpace=wrap;rounded=0;shadow=0;fontSize=16;" parent="1" vertex="1">
          <mxGeometry x="840" y="910" width="130" height="140" as="geometry" />
        </mxCell>
        <mxCell id="yBanLCSbXz5IwqCoXprg-158" style="edgeStyle=orthogonalEdgeStyle;rounded=0;orthogonalLoop=1;jettySize=auto;html=1;entryX=0.5;entryY=0;entryDx=0;entryDy=0;dashed=1;fontSize=16;strokeWidth=4;dashPattern=1 2;" parent="1" source="yBanLCSbXz5IwqCoXprg-137" target="yBanLCSbXz5IwqCoXprg-55" edge="1">
          <mxGeometry relative="1" as="geometry">
            <Array as="points">
              <mxPoint x="1840" y="320" />
              <mxPoint x="209" y="320" />
            </Array>
          </mxGeometry>
        </mxCell>
      </root>
    </mxGraphModel>
  </diagram>
</mxfile>
